<svg xmlns="http://www.w3.org/2000/svg" version="1.1" xmlns:xlink="http://www.w3.org/1999/xlink" xmlns:svgjs="http://svgjs.dev/svgjs" width="100%" height="100%" viewBox="0 0 1000 600"><rect width="1000" height="600" x="0" y="0" fill="#00ff80"/><g><rect width="333.3333333333333" height="333.3333333333333" rx="13.333333333333334" ry="13.333333333333334" y="249.3732916461681" fill="#f7f7f9" transform="matrix(0.5502946190333436,0,0,0.5502946190333435,0,71.05545342980807)" x="227.1511535644531"/><path d="M333.3700633569566 488.8011590803116L278.5193189967815 488.8011590803116L278.5193189967815 485.22528855796463L296.4297661347979 476.27006498895645L296.4297661347979 353.5710642830319L278.5193189967815 344.6158407140237L278.5193189967815 341.0399701916767L336.2929488273968 341.0399701916767Q359.8004106960433 341.0399701916767 373.3265296283994 350.7725569177168Q386.88374308703675 360.5051436437569 386.88374308703675 377.5449440458975L386.88374308703675 377.5449440458975Q386.88374308703675 390.07603813725274 378.36384288596645 400.0262865472618Q369.87503721117747 410.0076294835522 355.75812227947705 415.1382263199631L355.75812227947705 415.1382263199631L398.29543423226596 477.17180625111354L413.0653342158732 485.22528855796463L413.0653342158732 488.8011590803116L380.8203104621875 488.8011590803116L337.41235177352286 420.95290273456214L316.5790191650663 420.95290273456214L316.5790191650663 476.0524033049875L333.3700633569566 485.22528855796463L333.3700633569566 488.8011590803116ZM331.13125746470456 353.3534025990629L331.13125746470456 353.3534025990629L316.5790191650663 353.3534025990629L316.5790191650663 408.6394703271759L332.4683220947996 408.6394703271759Q346.58523702649995 408.6394703271759 355.88250038460217 400.7103661254499Q365.1486692164231 392.7501673974427 365.1486692164231 380.4367349900564L365.1486692164231 380.4367349900564Q365.1486692164231 367.9056408987012 355.975783963446 360.6295217488821Q346.8028987104689 353.3534025990629 331.13125746470456 353.3534025990629ZM469.93722278433137 491.0399649725637L469.93722278433137 491.0399649725637Q448.23324343999906 491.0399649725637 435.6710548223626 477.8247913030204Q423.13996073100736 464.60961763347706 423.13996073100736 442.90563828914475L423.13996073100736 442.90563828914475Q423.13996073100736 426.1145940972544 429.7630948289197 413.24146021680514Q436.3551344005507 400.3683263363559 447.20712407271685 393.0922071865367Q458.059113744883 385.8160880367176 470.83896404648846 385.8160880367176L470.83896404648846 385.8160880367176Q488.5317495005358 385.8160880367176 498.6996595945139 398.12952044410383Q508.8986642147732 410.4429528514901 508.8986642147732 433.5150913521986L508.8986642147732 433.5150913521986L507.7792612686472 434.6344942983247L440.8327461850548 434.6344942983247Q441.0504078690238 444.92678249742784 444.875034601621 453.9752896452798Q448.66856680793694 463.0548913194131 457.0640889038821 468.65190605004324Q465.45961099982725 474.24892078067336 479.57652593152767 474.24892078067336L479.57652593152767 474.24892078067336Q491.8899583389139 474.24892078067336 508.43224632055404 465.2936972116652L508.43224632055404 465.2936972116652L509.11632589874216 465.2936972116652L509.11632589874216 467.5325031039172Q503.9546345360499 477.17180625111354 493.7867244420719 484.1058856118386Q483.5877198218126 491.0399649725637 469.93722278433137 491.0399649725637ZM467.2630935241414 395.6730528678828L467.2630935241414 395.6730528678828Q456.5043874308191 395.6730528678828 449.6635916489378 403.1668337016709Q442.8538903933379 410.66061453545905 441.2680695529927 424.31111157294026L441.2680695529927 424.31111157294026L491.8899583389139 424.31111157294026Q489.4023962364117 409.1058882213951 483.24568003271855 402.389470544639Q477.08896382902543 395.6730528678828 467.2630935241414 395.6730528678828Z " fill="#d2302c" transform="matrix(0.5502946190333436,0,0,0.5502946190333435,0,71.05545342980807)"/><path d="M698.6722878027286 488.9301744094433L643.8178266564505 488.9301744094433L643.8178266564505 485.5603757813332L660.6961223937668 477.12122791267507L660.6961223937668 361.4931810733517L643.8178266564505 353.0540332046935L643.8178266564505 349.6842345765835L744.8824829029853 349.6842345765835L744.8824829029853 385.9608493731071L741.5126842748753 385.9608493731071L728.4144235203954 361.28806289598845L679.6842050982477 361.28806289598845L679.6842050982477 411.27829297908164L713.4407965728805 411.27829297908164L723.989731408703 393.78464270967567L727.3595300368131 393.78464270967567L727.3595300368131 439.99483780993233L723.989731408703 439.99483780993233L713.4407965728805 422.88212129848665L679.6842050982477 422.88212129848665L679.6842050982477 477.12122791267507L698.6722878027286 485.5603757813332L698.6722878027286 488.9301744094433ZM792.5578078415507 491.0399613766078L792.5578078415507 491.0399613766078Q782.6535301345838 491.0399613766078 776.0897484589608 485.23804721690533Q769.555269380104 479.4361330572028 769.555269380104 469.0923163987433L769.555269380104 469.0923163987433Q769.555269380104 458.7484997402839 777.2618523296078 451.1591271778447Q784.9684352791116 443.5697546154056 803.1067426773734 439.35018068107655L803.1067426773734 439.35018068107655L823.1497188654365 434.72037039202104L823.1497188654365 419.3072044930134Q823.1497188654365 412.1280682853007 817.3478047057341 406.9708112544541Q811.5458905460316 401.78425162684124 804.1616361609557 401.78425162684124L804.1616361609557 401.78425162684124Q796.132724647024 401.78425162684124 792.9680441962772 406.121035948235Q789.8033637455304 410.45782026962877 789.8033637455304 417.60765388057524L789.8033637455304 417.60765388057524L789.8033637455304 423.52677842734244L788.748470261948 424.58167191092474L777.7892990713989 424.58167191092474Q774.6246186206521 424.58167191092474 773.4525147500052 423.52677842734244Q772.3097134761243 422.4718849437602 772.3097134761243 418.66254736415755L772.3097134761243 418.66254736415755Q772.3097134761243 414.03273707510203 775.0348549753786 409.1685060119171Q777.7892990713989 404.3335775454984 783.4740028440367 400.72935814325893L783.4740028440367 400.72935814325893Q789.3931273908039 396.94932316042247 795.8396986793622 394.39999724176533Q802.2569673711544 391.8799739198743 809.6412217562303 391.8799739198743L809.6412217562303 391.8799739198743Q817.0254761413062 391.8799739198743 824.0874019619541 393.98976088703887Q831.1786303793683 396.0995478542034 835.6033224910606 401.0516867076869Q840.0280146027529 406.0038255611703 840.0280146027529 414.8825123813211L840.0280146027529 414.8825123813211L840.0280146027529 474.8063227681473Q841.4931444410616 476.271452606456 844.247588537082 477.32634609003827Q847.0020326331023 478.3812395736206 851.8369610995211 478.3812395736206L851.8369610995211 478.3812395736206L859.8658726134528 478.3812395736206L860.4812271455424 478.791475928347L860.4812271455424 479.4361330572028Q857.9612038236515 484.0659433462584 853.0090649701681 487.5529523614331Q848.0569261166846 491.0399613766078 840.877789908972 491.0399613766078L840.877789908972 491.0399613766078Q834.3433108301151 491.0399613766078 830.2116446860846 487.5529523614331Q826.1092811388202 484.0659433462584 824.4097305263821 478.3812395736206L824.4097305263821 478.3812395736206L823.1497188654365 478.3812395736206Q817.670133270162 483.86082516889513 809.5533139659318 487.46504457113457Q801.4071920649353 491.0399613766078 792.5578078415507 491.0399613766078ZM786.0233287626938 464.8727424644143L786.0233287626938 464.8727424644143Q786.0233287626938 477.9710032188941 801.846731016428 477.9710032188941L801.846731016428 477.9710032188941Q806.9160802569761 477.9710032188941 811.8682191104596 476.91610973531186Q816.8203579639429 475.86121625172956 823.1497188654365 473.10677215570917L823.1497188654365 473.10677215570917L823.1497188654365 441.8702040029675Q806.2714231281202 445.0348844537143 798.4769323883179 448.52189346888906Q790.6531390517493 452.00890248406375 788.3382339072217 456.0233582410296Q786.0233287626938 460.0378139979955 786.0233287626938 464.8727424644143ZM915.1305701144573 488.9301744094433L910.7058780027651 488.9301744094433L872.0850554649475 403.89403859400574L857.9612038236515 397.35955951514893L857.9612038236515 393.98976088703887L908.3909728582373 393.98976088703887L908.3909728582373 397.35955951514893L891.0731381694284 403.68892041664253L891.0731381694284 404.94893207758804L918.090132387841 463.81784898083197L918.93990769406 463.81784898083197L942.7629188649597 406.2382463352997L942.7629188649597 404.94893207758804L927.5841737400814 397.35955951514893L927.5841737400814 393.98976088703887L968.9301377771532 393.98976088703887L968.9301377771532 397.35955951514893L953.3118537007823 404.7438139002248L915.1305701144573 488.9301744094433ZM996.5624865276556 366.3574121365366L996.5624865276556 366.3574121365366Q991.0829009323809 366.3574121365366 987.5079841269077 362.66528494399864Q983.9037647246681 358.9731577514607 983.9037647246681 353.6986903335494L983.9037647246681 353.6986903335494Q983.9037647246681 348.2191047382748 987.5079841269077 344.61488533603534Q991.0829009323809 341.0399685305621 996.5624865276556 341.0399685305621L996.5624865276556 341.0399685305621Q1002.0713747196962 341.0399685305621 1005.6462915251694 344.61488533603534Q1009.2212083306428 348.2191047382748 1009.2212083306428 353.6986903335494L1009.2212083306428 353.6986903335494Q1009.2212083306428 358.9731577514607 1005.6462915251694 362.66528494399864Q1002.0713747196962 366.3574121365366 996.5624865276556 366.3574121365366ZM1018.9496704570125 488.9301744094433L975.46461685601 488.9301744094433L975.46461685601 485.5603757813332L988.7679957878531 478.791475928347L988.7679957878531 415.9374058649033L976.1092739848659 404.94893207758804L976.1092739848659 403.4838022392793L1004.386279864224 391.8799739198743L1005.6462915251694 391.8799739198743L1005.6462915251694 478.791475928347L1018.9496704570125 485.5603757813332L1018.9496704570125 488.9301744094433ZM1084.76330279384 491.0399613766078L1084.76330279384 491.0399613766078Q1064.31009025105 491.0399613766078 1052.4718411575159 478.5863577509838Q1040.6628946607475 466.1327541253597 1040.6628946607475 445.67954158257015L1040.6628946607475 445.67954158257015Q1040.6628946607475 429.8561393288361 1047.109465949306 417.72486426764Q1053.5267346410983 405.5935892064438 1064.5152084284136 398.73678156315907Q1075.4743796189628 391.8799739198743 1089.187994905532 391.8799739198743L1089.187994905532 391.8799739198743Q1097.6271427741904 391.8799739198743 1105.656054288122 394.7223258061932Q1113.6556632052875 397.56467769251213 1117.8752371396167 402.2237905783338L1117.8752371396167 402.2237905783338Q1121.274338364493 406.2382463352997 1121.274338364493 408.5531514798275L1121.274338364493 408.5531514798275Q1121.274338364493 411.512713753211 1118.5198942684724 413.62250072037557L1118.5198942684724 413.62250072037557L1110.4909827545407 420.36209797659563L1109.025852916232 420.36209797659563L1101.8467167085196 410.662938446992Q1098.6820362577723 406.4433645126629 1093.9350155816524 403.8061308037072Q1089.187994905532 401.16889709475157 1082.2432794719489 401.16889709475157L1082.2432794719489 401.16889709475157Q1070.6394511525436 401.16889709475157 1063.9877616866224 410.3406098825641Q1057.3360722207008 419.5123226703766 1057.3360722207008 435.9803820529665L1057.3360722207008 435.9803820529665Q1057.3360722207008 446.08977793729656 1060.7058708488107 455.05637254774587Q1064.0756694769207 464.0229671581952 1071.987370603788 469.6197631405344Q1079.8990717306551 475.2165591228738 1093.8471077913537 475.2165591228738L1093.8471077913537 475.2165591228738Q1105.450936110759 475.2165591228738 1121.0399175903635 466.77741125421556L1121.0399175903635 466.77741125421556L1121.6845747192192 466.77741125421556L1121.6845747192192 468.8871982213801Q1116.8203436560343 477.9710032188941 1107.2383945134952 484.505482297751Q1097.6271427741904 491.0399613766078 1084.76330279384 491.0399613766078ZM1188.1428641849025 491.0399613766078L1188.1428641849025 491.0399613766078Q1174.2241307209697 491.0399613766078 1163.7631036754456 484.505482297751Q1153.3313792266877 477.9710032188941 1147.5294650669848 466.77741125421556Q1141.7275509072824 455.583819289537 1141.7275509072824 441.45996764824105L1141.7275509072824 441.45996764824105Q1141.7275509072824 427.33611600694513 1147.5294650669848 416.1425240422666Q1153.3313792266877 404.94893207758804 1163.7631036754456 398.4144529987312Q1174.2241307209697 391.8799739198743 1188.1428641849025 391.8799739198743L1188.1428641849025 391.8799739198743Q1202.0615976488352 391.8799739198743 1212.5226246943594 398.4144529987312Q1222.9543491431173 404.94893207758804 1228.7562633028197 416.1425240422666Q1234.5581774625225 427.33611600694513 1234.5581774625225 441.45996764824105L1234.5581774625225 441.45996764824105Q1234.5581774625225 455.583819289537 1228.7562633028197 466.77741125421556Q1222.9543491431173 477.9710032188941 1212.5226246943594 484.505482297751Q1202.0615976488352 491.0399613766078 1188.1428641849025 491.0399613766078ZM1191.1024264582861 481.9561563790938L1191.1024264582861 481.9561563790938Q1199.541574326944 481.9561563790938 1205.0211599222189 476.6816889611825Q1210.5007455174932 471.4072215432711 1213.0500714361506 463.0852840616776Q1215.5700947580417 454.76334658008415 1215.5700947580417 445.67954158257015L1215.5700947580417 445.67954158257015Q1215.5700947580417 434.4859496178916 1212.5226246943594 424.1714355561983Q1209.4458520339113 413.8276188977388 1202.7941625679896 407.29313981888197Q1196.1717756988342 400.72935814325893 1185.6228408630113 400.72935814325893L1185.6228408630113 400.72935814325893Q1176.949272220224 400.72935814325893 1171.4696866249492 406.0038255611703Q1165.9901010296749 411.27829297908164 1163.3528673207188 419.5123226703766Q1160.7156336117632 427.74635236167154 1160.7156336117632 437.0352755365488L1160.7156336117632 437.0352755365488Q1160.7156336117632 448.19956490446117 1163.88031406251 458.5433815629206Q1167.0449945132568 468.8871982213801 1173.7845917694772 475.421677300237Q1180.5534916224633 481.9561563790938 1191.1024264582861 481.9561563790938ZM1300.3718097993496 488.9301744094433L1255.2458107794414 488.9301744094433L1255.2458107794414 485.5603757813332L1268.519887114518 478.791475928347L1268.519887114518 415.9374058649033L1255.8611653115308 404.94893207758804L1255.8611653115308 403.4838022392793L1282.0283842237245 391.8799739198743L1283.28839588467 391.8799739198743L1285.1930646744713 407.4982579962452L1286.2479581580537 407.4982579962452Q1294.2768696719854 399.4693464823134 1301.7490318473597 395.68931149947696Q1309.2504966195006 391.8799739198743 1318.3049990202485 391.8799739198743L1318.3049990202485 391.8799739198743Q1330.758602645872 391.8799739198743 1338.6703037727393 398.09212443430323Q1346.582004899606 404.3335775454984 1346.582004899606 416.552760396993L1346.582004899606 416.552760396993L1346.582004899606 478.791475928347L1359.8853838314494 485.5603757813332L1359.8853838314494 488.9301744094433L1314.730082214775 488.9301744094433L1314.730082214775 485.5603757813332L1329.7037091622901 478.791475928347L1329.7037091622901 426.4863407007261Q1329.7037091622901 417.19741752584883 1323.9017950025873 412.33318646266395Q1318.0998808428849 407.4982579962452 1308.8109576680076 407.4982579962452L1308.8109576680076 407.4982579962452Q1303.1262538953702 407.4982579962452 1296.2694462520853 409.4029267860465Q1289.4126386088005 411.27829297908164 1285.3981828518345 414.8825123813211L1285.3981828518345 414.8825123813211L1285.3981828518345 478.791475928347L1300.3718097993496 485.5603757813332L1300.3718097993496 488.9301744094433ZM1394.2573298381717 489.98506789302553L1394.2573298381717 489.98506789302553Q1388.9828624202605 489.98506789302553 1385.2028274374238 486.1757303134229Q1381.3934898578214 482.3956953305864 1381.3934898578214 477.12122791267507L1381.3934898578214 477.12122791267507Q1381.3934898578214 471.8467604947637 1385.2028274374238 468.0374229151611Q1388.9828624202605 464.2573879323246 1394.2573298381717 464.2573879323246L1394.2573298381717 464.2573879323246Q1399.5317972560829 464.2573879323246 1403.3411348356858 468.0374229151611Q1407.1504724152883 471.8467604947637 1407.1504724152883 477.12122791267507L1407.1504724152883 477.12122791267507Q1407.1504724152883 482.3956953305864 1403.3411348356858 486.1757303134229Q1399.5317972560829 489.98506789302553 1394.2573298381717 489.98506789302553ZM1453.1262467414158 366.3574121365366L1453.1262467414158 366.3574121365366Q1447.646661146141 366.3574121365366 1444.071744340668 362.66528494399864Q1440.4675249384286 358.9731577514607 1440.4675249384286 353.6986903335494L1440.4675249384286 353.6986903335494Q1440.4675249384286 348.2191047382748 1444.071744340668 344.61488533603534Q1447.646661146141 341.0399685305621 1453.1262467414158 341.0399685305621L1453.1262467414158 341.0399685305621Q1458.6058323366901 341.0399685305621 1462.21005173893 344.61488533603534Q1465.784968544403 348.2191047382748 1465.784968544403 353.6986903335494L1465.784968544403 353.6986903335494Q1465.784968544403 358.9731577514607 1462.21005173893 362.66528494399864Q1458.6058323366901 366.3574121365366 1453.1262467414158 366.3574121365366ZM1475.4841280740065 488.9301744094433L1432.0283770697702 488.9301744094433L1432.0283770697702 485.5603757813332L1445.331756001613 478.791475928347L1445.331756001613 415.9374058649033L1432.6730341986258 404.94893207758804L1432.6730341986258 403.4838022392793L1460.9500400779843 391.8799739198743L1462.21005173893 391.8799739198743L1462.21005173893 478.791475928347L1475.4841280740065 485.5603757813332L1475.4841280740065 488.9301744094433ZM1543.641968152128 491.0399613766078L1543.641968152128 491.0399613766078Q1529.7232346881951 491.0399613766078 1519.262207642671 484.505482297751Q1508.8304831939126 477.9710032188941 1503.0285690342102 466.77741125421556Q1497.2266548745079 455.583819289537 1497.2266548745079 441.45996764824105L1497.2266548745079 441.45996764824105Q1497.2266548745079 427.33611600694513 1503.0285690342102 416.1425240422666Q1508.8304831939126 404.94893207758804 1519.262207642671 398.4144529987312Q1529.7232346881951 391.8799739198743 1543.641968152128 391.8799739198743L1543.641968152128 391.8799739198743Q1557.5607016160602 391.8799739198743 1568.0217286615848 398.4144529987312Q1578.4534531103427 404.94893207758804 1584.255367270045 416.1425240422666Q1590.0572814297475 427.33611600694513 1590.0572814297475 441.45996764824105L1590.0572814297475 441.45996764824105Q1590.0572814297475 455.583819289537 1584.255367270045 466.77741125421556Q1578.4534531103427 477.9710032188941 1568.0217286615848 484.505482297751Q1557.5607016160602 491.0399613766078 1543.641968152128 491.0399613766078ZM1546.6015304255116 481.9561563790938L1546.6015304255116 481.9561563790938Q1555.0406782941695 481.9561563790938 1560.5202638894439 476.6816889611825Q1565.9998494847187 471.4072215432711 1568.549175403376 463.0852840616776Q1571.0691987252667 454.76334658008415 1571.0691987252667 445.67954158257015L1571.0691987252667 445.67954158257015Q1571.0691987252667 434.4859496178916 1568.0217286615848 424.1714355561983Q1564.9449560011362 413.8276188977388 1558.2932665352146 407.29313981888197Q1551.6708796660596 400.72935814325893 1541.1219448302368 400.72935814325893L1541.1219448302368 400.72935814325893Q1532.4483761874494 400.72935814325893 1526.9687905921746 406.0038255611703Q1521.4892049968998 411.27829297908164 1518.8519712879443 419.5123226703766Q1516.2147375789887 427.74635236167154 1516.2147375789887 437.0352755365488L1516.2147375789887 437.0352755365488Q1516.2147375789887 448.19956490446117 1519.3794180297355 458.5433815629206Q1522.5440984804823 468.8871982213801 1529.2836957367026 475.421677300237Q1536.0525955896887 481.9561563790938 1546.6015304255116 481.9561563790938Z " fill="#00000" transform="matrix(0.5502946190333436,0,0,0.5502946190333435,0,71.05545342980807)"/></g></svg>